<?xml version="1.0" encoding="UTF-8"?>
<!DOCTYPE svg PUBLIC "-//W3C//DTD SVG 1.1//EN" "http://www.w3.org/Graphics/SVG/1.1/DTD/svg11.dtd">
<svg xmlns="http://www.w3.org/2000/svg" version="1.1" width="822px" height="406px" style="shape-rendering:geometricPrecision; text-rendering:geometricPrecision; image-rendering:optimizeQuality; fill-rule:evenodd; clip-rule:evenodd" xmlns:xlink="http://www.w3.org/1999/xlink">
<g><path style="opacity:1" fill="#1e1e1e" d="M -0.5,-0.5 C 273.5,-0.5 547.5,-0.5 821.5,-0.5C 821.5,134.833 821.5,270.167 821.5,405.5C 547.5,405.5 273.5,405.5 -0.5,405.5C -0.5,270.167 -0.5,134.833 -0.5,-0.5 Z"/></g>
<g><path style="opacity:1" fill="#19221e" d="M 111.5,129.5 C 138.169,129.333 164.835,129.5 191.5,130C 194.174,133.012 197.507,134.678 201.5,135C 202.878,138.429 205.211,139.263 208.5,137.5C 209.5,137.833 210.167,138.5 210.5,139.5C 208.803,140.364 207.637,141.697 207,143.5C 206.125,146.883 205.125,150.216 204,153.5C 202.676,154.88 201.343,155.214 200,154.5C 197.792,157.799 198.625,160.133 202.5,161.5C 203.518,160.807 204.518,160.141 205.5,159.5C 203.913,163.683 201.579,167.35 198.5,170.5C 198.5,169.5 198.5,168.5 198.5,167.5C 196.856,167.286 195.356,167.62 194,168.5C 193.333,166.833 193.333,165.167 194,163.5C 195.487,162.845 196.653,161.845 197.5,160.5C 195.326,159.107 193.493,159.44 192,161.5C 191.333,159.833 191.333,158.167 192,156.5C 197.839,154.16 200.672,149.827 200.5,143.5C 206.427,143.633 206.761,142.966 201.5,141.5C 200.5,141.833 199.5,142.167 198.5,142.5C 198.895,147.666 196.561,150.333 191.5,150.5C 191.5,149.833 191.5,149.167 191.5,148.5C 192.833,147.833 193.833,146.833 194.5,145.5C 195.434,144.432 195.768,143.099 195.5,141.5C 164.336,140.336 133.003,140.169 101.5,141C 100.944,141.383 100.611,141.883 100.5,142.5C 99.8333,142.5 99.5,142.833 99.5,143.5C 99.1667,143.5 98.8333,143.5 98.5,143.5C 97.7286,141.886 96.7286,140.386 95.5,139C 95.8333,138.5 96.1667,138 96.5,137.5C 98.0709,138.309 99.7376,138.643 101.5,138.5C 132.797,139.818 164.13,139.818 195.5,138.5C 195.113,137.28 194.28,136.613 193,136.5C 165.863,137.654 138.697,137.82 111.5,137C 109.744,136.798 108.078,136.298 106.5,135.5C 107,134.119 108,133.453 109.5,133.5C 136.816,134.816 164.149,134.816 191.5,133.5C 164.842,132.5 138.175,132.167 111.5,132.5C 111.5,131.5 111.5,130.5 111.5,129.5 Z"/></g>
<g><path style="opacity:1" fill="#231a1d" d="M 111.5,129.5 C 111.5,130.5 111.5,131.5 111.5,132.5C 138.175,132.167 164.842,132.5 191.5,133.5C 164.149,134.816 136.816,134.816 109.5,133.5C 108,133.453 107,134.119 106.5,135.5C 108.078,136.298 109.744,136.798 111.5,137C 138.697,137.82 165.863,137.654 193,136.5C 194.28,136.613 195.113,137.28 195.5,138.5C 164.13,139.818 132.797,139.818 101.5,138.5C 100.359,137.661 99.0255,136.994 97.5,136.5C 96.1667,135.833 96.1667,135.167 97.5,134.5C 101.394,130.947 106.06,129.28 111.5,129.5 Z"/></g>
<g><path style="opacity:1" fill="#002e1a" d="M 195.5,141.5 C 163.79,141.181 132.123,141.515 100.5,142.5C 100.611,141.883 100.944,141.383 101.5,141C 133.003,140.169 164.336,140.336 195.5,141.5 Z"/></g>
<g><path style="opacity:1" fill="#1b8d67" d="M 195.5,141.5 C 195.768,143.099 195.434,144.432 194.5,145.5C 194.5,144.5 194.5,143.5 194.5,142.5C 163.995,142.169 133.662,142.502 103.5,143.5C 102.167,143.5 100.833,143.5 99.5,143.5C 99.5,142.833 99.8333,142.5 100.5,142.5C 132.123,141.515 163.79,141.181 195.5,141.5 Z"/></g>
<g><path style="opacity:1" fill="#16b580" d="M 103.5,143.5 C 133.662,142.502 163.995,142.169 194.5,142.5C 194.5,143.5 194.5,144.5 194.5,145.5C 193.833,146.833 192.833,147.833 191.5,148.5C 191.421,147.07 191.754,145.736 192.5,144.5C 162.841,143.5 133.174,143.167 103.5,143.5 Z"/></g>
<g><path style="opacity:1" fill="#162d20" d="M 671.5,158.5 C 670.711,158.217 670.044,157.717 669.5,157C 664.177,156.501 658.844,156.334 653.5,156.5C 653.5,157.5 653.5,158.5 653.5,159.5C 650.983,157.923 650.983,156.09 653.5,154C 656.413,154.29 659.413,154.457 662.5,154.5C 662.579,153.07 662.246,151.736 661.5,150.5C 663.743,149.526 666.076,149.192 668.5,149.5C 669.03,152.682 670.03,155.682 671.5,158.5 Z"/></g>
<g><path style="opacity:1" fill="#f2f2f2" d="M 321.5,225.5 C 301.042,225.471 280.375,225.471 259.5,225.5C 256.27,225.439 254.437,223.772 254,220.5C 253.333,200.5 253.333,180.5 254,160.5C 255.109,158.185 256.943,156.685 259.5,156C 279.833,155.333 300.167,155.333 320.5,156C 321.667,156.5 322.5,157.333 323,158.5C 323.498,161.482 323.665,164.482 323.5,167.5C 304.83,167.333 286.164,167.5 267.5,168C 266.299,168.903 265.465,170.069 265,171.5C 264.333,184.167 264.333,196.833 265,209.5C 265.11,211.848 266.277,213.348 268.5,214C 286.83,214.5 305.164,214.667 323.5,214.5C 324.08,218.649 323.414,222.316 321.5,225.5 Z"/></g>
<g><path style="opacity:1" fill="#113b2d" d="M 95.5,149.5 C 95.5,186.5 95.5,223.5 95.5,260.5C 93.7497,259.341 92.7497,257.674 92.5,255.5C 93.3324,223.003 93.8324,190.336 94,157.5C 94.1829,154.635 94.6829,151.969 95.5,149.5 Z"/></g>
<g><path style="opacity:1" fill="#27aa78" d="M 671.5,158.5 C 671.5,158.833 671.5,159.167 671.5,159.5C 669.516,158.844 667.516,158.178 665.5,157.5C 662.476,158.73 659.476,158.73 656.5,157.5C 655.702,157.957 655.369,158.624 655.5,159.5C 654.833,159.5 654.167,159.5 653.5,159.5C 653.5,158.5 653.5,157.5 653.5,156.5C 658.844,156.334 664.177,156.501 669.5,157C 670.044,157.717 670.711,158.217 671.5,158.5 Z"/></g>
<g><path style="opacity:1" fill="#16211c" d="M 237.5,157.5 C 238.486,190.123 238.819,222.79 238.5,255.5C 238.709,259.748 238.042,264.082 236.5,268.5C 235.167,268.5 233.833,268.5 232.5,268.5C 232.5,267.167 232.5,265.833 232.5,264.5C 233.889,261.721 234.722,258.721 235,255.5C 235.166,127.505 234.333,127.505 232.5,255.5C 231.831,257.631 231.165,259.631 230.5,261.5C 230.168,224.996 230.502,188.663 231.5,152.5C 231.337,154.857 231.503,157.19 232,159.5C 233.908,155.586 236.241,151.92 239,148.5C 239.788,151.772 239.288,154.772 237.5,157.5 Z"/></g>
<g><path style="opacity:1" fill="#f1f1f1" d="M 413.5,226.5 C 413.5,203.167 413.5,179.833 413.5,156.5C 433.663,155.337 453.996,155.171 474.5,156C 477.583,156.786 479.749,158.619 481,161.5C 481.667,168.167 481.667,174.833 481,181.5C 479.692,184.941 477.859,187.941 475.5,190.5C 475.667,191.5 475.833,192.5 476,193.5C 479.041,194.186 481.375,195.853 483,198.5C 483.667,205.833 483.667,213.167 483,220.5C 481.749,223.381 479.583,225.214 476.5,226C 455.503,226.5 434.503,226.667 413.5,226.5 Z"/></g>
<g><path style="opacity:1" fill="#f1f1f1" d="M 493.5,155.5 C 516.833,155.5 540.167,155.5 563.5,155.5C 563.5,159.5 563.5,163.5 563.5,167.5C 544.167,167.5 524.833,167.5 505.5,167.5C 505.5,173.167 505.5,178.833 505.5,184.5C 523.167,184.5 540.833,184.5 558.5,184.5C 558.5,188.5 558.5,192.5 558.5,196.5C 540.5,196.5 522.5,196.5 504.5,196.5C 504.177,202.69 504.51,208.69 505.5,214.5C 524.833,214.5 544.167,214.5 563.5,214.5C 563.5,218.167 563.5,221.833 563.5,225.5C 540.167,225.5 516.833,225.5 493.5,225.5C 493.5,202.167 493.5,178.833 493.5,155.5 Z"/></g>
<g><path style="opacity:1" fill="#a6a6a6" d="M 574.5,155.5 C 574.5,178.833 574.5,202.167 574.5,225.5C 578.167,225.5 581.833,225.5 585.5,225.5C 585.5,225.833 585.5,226.167 585.5,226.5C 581.5,226.5 577.5,226.5 573.5,226.5C 573.169,202.661 573.502,178.994 574.5,155.5 Z"/></g>
<g><path style="opacity:1" fill="#27191d" d="M 81.5,159.5 C 82.5,159.5 83.5,159.5 84.5,159.5C 84.5,191.5 84.5,223.5 84.5,255.5C 83.5,255.5 82.5,255.5 81.5,255.5C 81.5,223.5 81.5,191.5 81.5,159.5 Z"/></g>
<g><path style="opacity:1" fill="#16221e" d="M 85.5,159.5 C 86.5,159.5 87.5,159.5 88.5,159.5C 88.5,191.5 88.5,223.5 88.5,255.5C 87.5,255.5 86.5,255.5 85.5,255.5C 85.5,223.5 85.5,191.5 85.5,159.5 Z"/></g>
<g><path style="opacity:1" fill="#27191e" d="M 92.5,255.5 C 91.5,255.5 90.5,255.5 89.5,255.5C 89.5,223.5 89.5,191.5 89.5,159.5C 90.5,159.5 91.5,159.5 92.5,159.5C 92.5,191.5 92.5,223.5 92.5,255.5 Z"/></g>
<g><path style="opacity:1" fill="#05c07b" d="M 98.5,143.5 C 98.8333,143.5 99.1667,143.5 99.5,143.5C 100.833,143.5 102.167,143.5 103.5,143.5C 133.174,143.167 162.841,143.5 192.5,144.5C 191.754,145.736 191.421,147.07 191.5,148.5C 191.5,149.167 191.5,149.833 191.5,150.5C 189.975,152.216 188.975,154.216 188.5,156.5C 183.809,162.536 179.475,168.869 175.5,175.5C 173.066,179.382 170.399,183.048 167.5,186.5C 166.448,186.351 165.448,186.517 164.5,187C 163.206,189.087 162.039,191.254 161,193.5C 160.31,194.738 159.81,194.738 159.5,193.5C 159.672,192.508 159.338,191.842 158.5,191.5C 156.406,187.636 154.072,183.969 151.5,180.5C 149.081,175.991 146.414,171.658 143.5,167.5C 143.5,167.167 143.5,166.833 143.5,166.5C 143.209,165.351 142.376,164.684 141,164.5C 136.48,163.983 131.98,163.316 127.5,162.5C 125.314,159.769 122.648,159.103 119.5,160.5C 120.167,161.5 120.833,162.5 121.5,163.5C 119.48,165.599 119.146,167.933 120.5,170.5C 122.629,172.656 124.962,174.323 127.5,175.5C 132.833,183.5 138.167,191.5 143.5,199.5C 143.5,199.833 143.5,200.167 143.5,200.5C 143.884,202.929 144.551,205.263 145.5,207.5C 146.833,207.5 148.167,207.5 149.5,207.5C 149.5,208.833 149.5,210.167 149.5,211.5C 148.087,214.661 146.42,217.661 144.5,220.5C 143.659,221.926 142.659,223.26 141.5,224.5C 137.425,228.976 134.092,233.976 131.5,239.5C 128.902,241.304 126.735,243.638 125,246.5C 119.49,254.862 113.99,263.195 108.5,271.5C 103.592,270.626 99.4255,268.293 96,264.5C 95.51,263.207 95.3433,261.873 95.5,260.5C 95.5,223.5 95.5,186.5 95.5,149.5C 95.615,147.053 96.615,145.053 98.5,143.5 Z"/></g>
<g><path style="opacity:1" fill="#2caa7b" d="M 225.5,143.5 C 225.833,143.5 226.167,143.5 226.5,143.5C 227.072,144.973 227.905,146.307 229,147.5C 229.831,185.669 229.664,223.669 228.5,261.5C 228.667,224.832 228.5,188.165 228,151.5C 227.059,148.846 226.226,146.179 225.5,143.5 Z"/></g>
<g><path style="opacity:1" fill="#032e19" d="M 226.5,143.5 C 230.243,145.265 231.91,148.265 231.5,152.5C 230.502,188.663 230.168,224.996 230.5,261.5C 229.833,263.833 229.167,266.167 228.5,268.5C 229.091,269.151 229.757,269.818 230.5,270.5C 230,270.833 229.5,271.167 229,271.5C 227.908,270.704 226.741,270.037 225.5,269.5C 223.028,270.992 220.361,271.658 217.5,271.5C 219.942,269.774 222.609,268.274 225.5,267C 227.607,265.736 228.607,263.903 228.5,261.5C 229.664,223.669 229.831,185.669 229,147.5C 227.905,146.307 227.072,144.973 226.5,143.5 Z"/></g>
<g><path style="opacity:1" fill="#27191d" d="M 232.5,264.5 C 231.566,265.568 231.232,266.901 231.5,268.5C 230.5,268.5 229.5,268.5 228.5,268.5C 229.167,266.167 229.833,263.833 230.5,261.5C 231.165,259.631 231.831,257.631 232.5,255.5C 234.333,127.505 235.166,127.505 235,255.5C 234.722,258.721 233.889,261.721 232.5,264.5 Z"/></g>
<g><path style="opacity:1" fill="#2b161f" d="M 238.5,255.5 C 238.819,222.79 238.486,190.123 237.5,157.5C 238.117,157.389 238.617,157.056 239,156.5C 239.827,190.875 239.66,223.875 238.5,255.5 Z"/></g>
<g><path style="opacity:1" fill="#565656" d="M 413.5,156.5 C 413.5,179.833 413.5,203.167 413.5,226.5C 412.761,226.631 412.094,226.464 411.5,226C 412.162,202.736 412.829,179.569 413.5,156.5 Z"/></g>
<g><path style="opacity:1" fill="#565656" d="M 493.5,155.5 C 493.5,178.833 493.5,202.167 493.5,225.5C 493.5,225.833 493.5,226.167 493.5,226.5C 492.761,226.631 492.094,226.464 491.5,226C 492.162,202.402 492.829,178.902 493.5,155.5 Z"/></g>
<g><path style="opacity:1" fill="#f2f2f2" d="M 574.5,155.5 C 595.169,155.333 615.836,155.5 636.5,156C 640.527,156.427 643.027,158.594 644,162.5C 644.939,174.904 644.606,187.238 643,199.5C 641.681,201.487 639.848,202.654 637.5,203C 632.5,203.333 627.5,203.667 622.5,204C 628.5,211.333 634.5,218.667 640.5,226C 635.136,226.829 629.802,226.663 624.5,225.5C 618.312,218.48 612.312,211.313 606.5,204C 599.842,203.5 593.175,203.334 586.5,203.5C 585.508,210.648 585.175,217.981 585.5,225.5C 581.833,225.5 578.167,225.5 574.5,225.5C 574.5,202.167 574.5,178.833 574.5,155.5 Z"/></g>
<g><path style="opacity:1" fill="#12271e" d="M 727.5,159.5 C 727.557,158.391 727.89,157.391 728.5,156.5C 723.025,155.511 717.358,155.178 711.5,155.5C 711.5,153.833 711.5,152.167 711.5,150.5C 714.5,150.167 715.833,151.5 715.5,154.5C 719.525,154.184 723.525,154.017 727.5,154C 729.708,154.936 731.042,156.602 731.5,159C 732.833,159.333 734.167,159.667 735.5,160C 732.608,163.633 729.608,167.133 726.5,170.5C 726.167,170.167 725.833,169.833 725.5,169.5C 726.687,166.222 728.353,163.222 730.5,160.5C 729.675,159.614 728.675,159.281 727.5,159.5 Z"/></g>
<g><path style="opacity:1" fill="#1cb37b" d="M 143.5,166.5 C 136.891,165.577 130.224,165.244 123.5,165.5C 123.34,167.199 123.506,168.866 124,170.5C 125.802,171.789 126.969,173.456 127.5,175.5C 124.962,174.323 122.629,172.656 120.5,170.5C 119.146,167.933 119.48,165.599 121.5,163.5C 120.833,162.5 120.167,161.5 119.5,160.5C 122.648,159.103 125.314,159.769 127.5,162.5C 131.98,163.316 136.48,163.983 141,164.5C 142.376,164.684 143.209,165.351 143.5,166.5 Z"/></g>
<g><path style="opacity:1" fill="#063f27" d="M 711.5,155.5 C 717.358,155.178 723.025,155.511 728.5,156.5C 722.824,156.334 717.157,156.501 711.5,157C 708.942,159.961 706.275,162.795 703.5,165.5C 705.182,161.517 707.849,158.183 711.5,155.5 Z"/></g>
<g><path style="opacity:1" fill="#b2b2b2" d="M 465.5,165.5 C 452.167,165.5 438.833,165.5 425.5,165.5C 425.5,172.5 425.5,179.5 425.5,186.5C 424.508,179.352 424.175,172.019 424.5,164.5C 438.344,164.171 452.01,164.504 465.5,165.5 Z"/></g>
<g><path style="opacity:1" fill="#202020" d="M 465.5,165.5 C 466.721,166.028 467.887,166.695 469,167.5C 469.667,172.833 469.667,178.167 469,183.5C 468.5,184 468,184.5 467.5,185C 453.598,186.465 439.598,186.965 425.5,186.5C 425.5,179.5 425.5,172.5 425.5,165.5C 438.833,165.5 452.167,165.5 465.5,165.5 Z"/></g>
<g><path style="opacity:1" fill="#1e1e1e" d="M 586.5,165.5 C 601.17,165.333 615.837,165.5 630.5,166C 631,166.5 631.5,167 632,167.5C 632.667,175.5 632.667,183.5 632,191.5C 631.184,192.823 630.017,193.489 628.5,193.5C 614.5,193.5 600.5,193.5 586.5,193.5C 586.5,184.167 586.5,174.833 586.5,165.5 Z"/></g>
<g><path style="opacity:1" fill="#08c17a" d="M 671.5,159.5 C 671.608,161.783 672.441,163.783 674,165.5C 677.751,167.747 680.584,170.747 682.5,174.5C 681.513,177.134 680.013,179.468 678,181.5C 676.974,178.307 674.808,176.974 671.5,177.5C 670.055,175.937 668.389,174.604 666.5,173.5C 662.81,168.815 659.143,164.148 655.5,159.5C 655.369,158.624 655.702,157.957 656.5,157.5C 659.476,158.73 662.476,158.73 665.5,157.5C 667.516,158.178 669.516,158.844 671.5,159.5 Z"/></g>
<g><path style="opacity:1" fill="#201e1e" d="M 198.5,170.5 C 198.5,170.833 198.5,171.167 198.5,171.5C 196.205,172.475 194.205,173.808 192.5,175.5C 189.915,175.568 187.582,176.068 185.5,177C 184.643,176.311 183.977,175.478 183.5,174.5C 185.396,173.534 187.396,173.201 189.5,173.5C 189.5,171.833 189.5,170.167 189.5,168.5C 187.219,168.923 185.552,168.256 184.5,166.5C 184.675,164.156 185.842,162.489 188,161.5C 188.494,159.866 188.66,158.199 188.5,156.5C 188.975,154.216 189.975,152.216 191.5,150.5C 196.561,150.333 198.895,147.666 198.5,142.5C 199.5,142.167 200.5,141.833 201.5,141.5C 206.761,142.966 206.427,143.633 200.5,143.5C 200.672,149.827 197.839,154.16 192,156.5C 191.333,158.167 191.333,159.833 192,161.5C 193.493,159.44 195.326,159.107 197.5,160.5C 196.653,161.845 195.487,162.845 194,163.5C 193.333,165.167 193.333,166.833 194,168.5C 195.356,167.62 196.856,167.286 198.5,167.5C 198.5,168.5 198.5,169.5 198.5,170.5 Z"/></g>
<g><path style="opacity:1" fill="#0a321e" d="M 188.5,156.5 C 188.66,158.199 188.494,159.866 188,161.5C 185.842,162.489 184.675,164.156 184.5,166.5C 180.18,168.933 179.514,172.099 182.5,176C 180.249,175.793 177.915,175.627 175.5,175.5C 179.475,168.869 183.809,162.536 188.5,156.5 Z"/></g>
<g><path style="opacity:1" fill="#102d1e" d="M 143.5,166.5 C 143.5,166.833 143.5,167.167 143.5,167.5C 146.414,171.658 149.081,175.991 151.5,180.5C 150.833,180.167 150.167,179.833 149.5,179.5C 147.735,177.359 146.068,175.025 144.5,172.5C 139.828,173.224 135.162,174.057 130.5,175C 132.34,180.544 135.506,185.377 140,189.5C 140.21,191.058 140.71,192.391 141.5,193.5C 142.72,195.282 143.386,197.282 143.5,199.5C 138.167,191.5 132.833,183.5 127.5,175.5C 126.969,173.456 125.802,171.789 124,170.5C 123.506,168.866 123.34,167.199 123.5,165.5C 130.224,165.244 136.891,165.577 143.5,166.5 Z"/></g>
<g><path style="opacity:1" fill="#1f1d1d" d="M 143.5,167.5 C 143.5,168.833 143.5,170.167 143.5,171.5C 138.162,172.002 132.828,172.169 127.5,172C 125.963,170.89 125.297,169.39 125.5,167.5C 131.5,167.5 137.5,167.5 143.5,167.5 Z"/></g>
<g><path style="opacity:1" fill="#06371c" d="M 198.5,171.5 C 196.154,174.871 193.821,178.204 191.5,181.5C 191.517,179.435 191.85,177.435 192.5,175.5C 194.205,173.808 196.205,172.475 198.5,171.5 Z"/></g>
<g><path style="opacity:1" fill="#1dad75" d="M 671.5,159.5 C 671.833,159.5 672.167,159.5 672.5,159.5C 676.842,164.84 681.175,170.174 685.5,175.5C 683.573,178.932 681.073,181.932 678,184.5C 675.697,182.361 673.53,180.028 671.5,177.5C 674.808,176.974 676.974,178.307 678,181.5C 680.013,179.468 681.513,177.134 682.5,174.5C 680.584,170.747 677.751,167.747 674,165.5C 672.441,163.783 671.608,161.783 671.5,159.5 Z"/></g>
<g><path style="opacity:1" fill="#231b1d" d="M 149.5,179.5 C 149.5,180.5 149.5,181.5 149.5,182.5C 148.167,182.5 146.833,182.5 145.5,182.5C 145.093,189.049 144.093,189.049 142.5,182.5C 142.167,183.333 141.833,184.167 141.5,185C 143.238,187.93 143.738,191.097 143,194.5C 142.617,193.944 142.117,193.611 141.5,193.5C 140.71,192.391 140.21,191.058 140,189.5C 135.506,185.377 132.34,180.544 130.5,175C 135.162,174.057 139.828,173.224 144.5,172.5C 146.068,175.025 147.735,177.359 149.5,179.5 Z"/></g>
<g><path style="opacity:1" fill="#18231e" d="M 149.5,179.5 C 150.167,179.833 150.833,180.167 151.5,180.5C 154.072,183.969 156.406,187.636 158.5,191.5C 155.45,190.923 153.45,192.09 152.5,195C 151.552,195.483 150.552,195.649 149.5,195.5C 149.357,193.738 149.691,192.071 150.5,190.5C 147.251,189.136 145.585,190.302 145.5,194C 146,196.5 146.5,199 147,201.5C 147.671,202.252 148.504,202.586 149.5,202.5C 148.791,203.404 147.791,203.737 146.5,203.5C 145.272,202.694 144.272,201.694 143.5,200.5C 143.5,200.167 143.5,199.833 143.5,199.5C 143.386,197.282 142.72,195.282 141.5,193.5C 142.117,193.611 142.617,193.944 143,194.5C 143.738,191.097 143.238,187.93 141.5,185C 141.833,184.167 142.167,183.333 142.5,182.5C 144.093,189.049 145.093,189.049 145.5,182.5C 146.833,182.5 148.167,182.5 149.5,182.5C 149.5,181.5 149.5,180.5 149.5,179.5 Z"/></g>
<g><path style="opacity:1" fill="#0f2b1e" d="M 672.5,159.5 C 673.675,159.281 674.675,159.614 675.5,160.5C 679.677,165.007 683.677,169.673 687.5,174.5C 686.833,176.167 686.167,177.833 685.5,179.5C 682.443,181.721 679.943,184.388 678,187.5C 677.437,188.725 677.77,189.725 679,190.5C 682.716,187.286 685.883,183.619 688.5,179.5C 689.622,178.37 690.956,177.703 692.5,177.5C 687.175,184.157 681.509,190.49 675.5,196.5C 675.678,195.305 676.011,194.138 676.5,193C 674.991,188.374 673.324,183.874 671.5,179.5C 668.113,179.138 666.447,177.138 666.5,173.5C 668.389,174.604 670.055,175.937 671.5,177.5C 673.53,180.028 675.697,182.361 678,184.5C 681.073,181.932 683.573,178.932 685.5,175.5C 681.175,170.174 676.842,164.84 672.5,159.5 Z"/></g>
<g><path style="opacity:1" fill="#0e3422" d="M 703.5,185.5 C 702.37,188.197 702.37,190.863 703.5,193.5C 703.167,193.5 702.833,193.5 702.5,193.5C 698.382,190.372 698.715,187.706 703.5,185.5 Z"/></g>
<g><path style="opacity:1" fill="#1c201d" d="M 184.5,166.5 C 185.552,168.256 187.219,168.923 189.5,168.5C 189.5,170.167 189.5,171.833 189.5,173.5C 187.396,173.201 185.396,173.534 183.5,174.5C 183.977,175.478 184.643,176.311 185.5,177C 187.582,176.068 189.915,175.568 192.5,175.5C 191.85,177.435 191.517,179.435 191.5,181.5C 191.5,182.167 191.5,182.833 191.5,183.5C 189.167,186.167 186.833,188.833 184.5,191.5C 182.952,191.821 182.285,192.821 182.5,194.5C 181.178,194.33 180.011,194.663 179,195.5C 177.604,198.064 176.437,200.731 175.5,203.5C 175.5,204.5 175.5,205.5 175.5,206.5C 174.26,207.973 173.26,209.64 172.5,211.5C 173.26,213.36 174.26,215.027 175.5,216.5C 174.07,216.579 172.736,216.246 171.5,215.5C 170.548,217.045 170.215,218.712 170.5,220.5C 167.677,220.975 165.677,219.975 164.5,217.5C 165.7,214.167 165.7,210.833 164.5,207.5C 163.5,207.5 162.5,207.5 161.5,207.5C 161.892,210.722 161.392,213.722 160,216.5C 158.175,214.52 157.341,212.187 157.5,209.5C 155.486,209.392 153.82,210.058 152.5,211.5C 152.833,210.167 153.167,208.833 153.5,207.5C 155.313,205.947 157.147,204.28 159,202.5C 159.483,201.552 159.649,200.552 159.5,199.5C 160.822,199.67 161.989,199.337 163,198.5C 164.136,196.257 164.97,193.924 165.5,191.5C 165.893,189.716 166.559,188.05 167.5,186.5C 170.399,183.048 173.066,179.382 175.5,175.5C 177.915,175.627 180.249,175.793 182.5,176C 179.514,172.099 180.18,168.933 184.5,166.5 Z"/></g>
<g><path style="opacity:1" fill="#27191d" d="M 158.5,191.5 C 159.338,191.842 159.672,192.508 159.5,193.5C 159.167,193.5 158.833,193.5 158.5,193.5C 157.761,193.369 157.094,193.536 156.5,194C 154.332,196.998 151.999,199.831 149.5,202.5C 148.504,202.586 147.671,202.252 147,201.5C 146.5,199 146,196.5 145.5,194C 145.585,190.302 147.251,189.136 150.5,190.5C 149.691,192.071 149.357,193.738 149.5,195.5C 150.552,195.649 151.552,195.483 152.5,195C 153.45,192.09 155.45,190.923 158.5,191.5 Z"/></g>
<g><path style="opacity:1" fill="#7d7d7d" d="M 586.5,165.5 C 586.5,174.833 586.5,184.167 586.5,193.5C 600.5,193.5 614.5,193.5 628.5,193.5C 614.343,194.496 600.01,194.829 585.5,194.5C 585.173,184.652 585.506,174.986 586.5,165.5 Z"/></g>
<g><path style="opacity:1" fill="#25ae7b" d="M 167.5,186.5 C 166.559,188.05 165.893,189.716 165.5,191.5C 163.512,194.128 161.512,196.795 159.5,199.5C 156.762,201.577 154.762,204.243 153.5,207.5C 152.167,208.833 150.833,210.167 149.5,211.5C 149.5,210.167 149.5,208.833 149.5,207.5C 148.167,207.5 146.833,207.5 145.5,207.5C 144.551,205.263 143.884,202.929 143.5,200.5C 144.272,201.694 145.272,202.694 146.5,203.5C 146.415,204.995 147.081,205.995 148.5,206.5C 151.857,202.148 155.191,197.815 158.5,193.5C 158.833,193.5 159.167,193.5 159.5,193.5C 159.81,194.738 160.31,194.738 161,193.5C 162.039,191.254 163.206,189.087 164.5,187C 165.448,186.517 166.448,186.351 167.5,186.5 Z"/></g>
<g><path style="opacity:1" fill="#0a3323" d="M 165.5,191.5 C 164.97,193.924 164.136,196.257 163,198.5C 161.989,199.337 160.822,199.67 159.5,199.5C 161.512,196.795 163.512,194.128 165.5,191.5 Z"/></g>
<g><path style="opacity:1" fill="#219b6e" d="M 191.5,183.5 C 189.295,189.31 185.961,194.477 181.5,199C 181.432,202.616 179.432,205.116 175.5,206.5C 175.5,205.5 175.5,204.5 175.5,203.5C 176.496,203.586 177.329,203.252 178,202.5C 180.425,198.926 182.592,195.26 184.5,191.5C 186.833,188.833 189.167,186.167 191.5,183.5 Z"/></g>
<g><path style="opacity:1" fill="#08c27a" d="M 702.5,193.5 C 702.833,193.5 703.167,193.5 703.5,193.5C 707.155,198.486 711.155,203.153 715.5,207.5C 716.5,209.167 717.833,210.5 719.5,211.5C 719.5,211.833 719.5,212.167 719.5,212.5C 721.217,215.771 723.217,218.938 725.5,222C 725.167,222.5 724.833,223 724.5,223.5C 723.186,222.687 722.019,221.687 721,220.5C 718.952,222.506 719.452,223.506 722.5,223.5C 722.5,224.5 722.5,225.5 722.5,226.5C 720.159,226.008 718.159,224.841 716.5,223C 720.619,220.426 720.452,218.26 716,216.5C 714.174,217.01 714.007,217.844 715.5,219C 714.833,219.167 714.167,219.333 713.5,219.5C 710.478,216.989 707.145,214.989 703.5,213.5C 703.5,213.167 703.5,212.833 703.5,212.5C 703.297,210.956 702.63,209.622 701.5,208.5C 701.709,207.914 702.043,207.414 702.5,207C 700.32,204.988 697.986,203.155 695.5,201.5C 694.289,200.28 694.289,199.113 695.5,198C 693.023,196.357 690.69,194.524 688.5,192.5C 685.519,196.576 684.186,196.243 684.5,191.5C 685.5,191.5 686.5,191.5 687.5,191.5C 687.5,189.5 687.5,187.5 687.5,185.5C 688.5,185.5 689.5,185.5 690.5,185.5C 690.5,187.5 690.5,189.5 690.5,191.5C 694.64,191.689 698.64,192.356 702.5,193.5 Z"/></g>
<g><path style="opacity:1" fill="#13bb79" d="M 728.5,156.5 C 727.89,157.391 727.557,158.391 727.5,159.5C 719.037,167.777 711.037,176.444 703.5,185.5C 698.715,187.706 698.382,190.372 702.5,193.5C 698.64,192.356 694.64,191.689 690.5,191.5C 690.5,189.5 690.5,187.5 690.5,185.5C 689.5,185.5 688.5,185.5 687.5,185.5C 687.5,187.5 687.5,189.5 687.5,191.5C 686.5,191.5 685.5,191.5 684.5,191.5C 684.186,196.243 685.519,196.576 688.5,192.5C 690.69,194.524 693.023,196.357 695.5,198C 694.289,199.113 694.289,200.28 695.5,201.5C 697.986,203.155 700.32,204.988 702.5,207C 702.043,207.414 701.709,207.914 701.5,208.5C 702.63,209.622 703.297,210.956 703.5,212.5C 698.767,208.567 694.433,204.234 690.5,199.5C 688.359,201.122 686.692,203.122 685.5,205.5C 678.833,212.5 672.167,219.5 665.5,226.5C 661.154,226.666 656.821,226.499 652.5,226C 651.748,225.329 651.414,224.496 651.5,223.5C 654.634,220.58 657.301,217.247 659.5,213.5C 665.482,208.516 670.815,202.849 675.5,196.5C 681.509,190.49 687.175,184.157 692.5,177.5C 696.217,173.454 699.884,169.454 703.5,165.5C 706.275,162.795 708.942,159.961 711.5,157C 717.157,156.501 722.824,156.334 728.5,156.5 Z"/></g>
<g><path style="opacity:1" fill="#797979" d="M 558.5,196.5 C 541.008,197.497 523.341,197.83 505.5,197.5C 505.5,203.167 505.5,208.833 505.5,214.5C 504.51,208.69 504.177,202.69 504.5,196.5C 522.5,196.5 540.5,196.5 558.5,196.5 Z"/></g>
<g><path style="opacity:1" fill="#083520" d="M 703.5,193.5 C 704.822,193.33 705.989,193.663 707,194.5C 710.844,198.192 713.677,202.525 715.5,207.5C 711.155,203.153 707.155,198.486 703.5,193.5 Z"/></g>
<g><path style="opacity:1" fill="#f2f2f2" d="M 374.5,198.5 C 373.507,207.318 373.173,216.318 373.5,225.5C 369.833,225.5 366.167,225.5 362.5,225.5C 362.666,216.494 362.5,207.494 362,198.5C 351.134,184.601 340.634,170.434 330.5,156C 335.5,155.333 340.5,155.333 345.5,156C 353,166.167 360.5,176.333 368,186.5C 375.866,176.6 383.366,166.434 390.5,156C 395.533,155.171 400.533,155.338 405.5,156.5C 395.142,170.518 384.809,184.518 374.5,198.5 Z"/></g>
<g><path style="opacity:1" fill="#1e1e1e" d="M 425.5,195.5 C 439.837,195.333 454.171,195.5 468.5,196C 469.667,196.5 470.5,197.333 471,198.5C 471.667,203.833 471.667,209.167 471,214.5C 470.25,215.126 469.416,215.626 468.5,216C 454.171,216.5 439.837,216.667 425.5,216.5C 425.5,209.5 425.5,202.5 425.5,195.5 Z"/></g>
<g><path style="opacity:1" fill="#0b2d1d" d="M 184.5,191.5 C 182.592,195.26 180.425,198.926 178,202.5C 177.329,203.252 176.496,203.586 175.5,203.5C 176.437,200.731 177.604,198.064 179,195.5C 180.011,194.663 181.178,194.33 182.5,194.5C 182.285,192.821 182.952,191.821 184.5,191.5 Z"/></g>
<g><path style="opacity:1" fill="#aaaaaa" d="M 374.5,198.5 C 374.5,207.833 374.5,217.167 374.5,226.5C 370.298,226.817 366.298,226.483 362.5,225.5C 366.167,225.5 369.833,225.5 373.5,225.5C 373.173,216.318 373.507,207.318 374.5,198.5 Z"/></g>
<g><path style="opacity:1" fill="#06371e" d="M 158.5,193.5 C 155.191,197.815 151.857,202.148 148.5,206.5C 147.081,205.995 146.415,204.995 146.5,203.5C 147.791,203.737 148.791,203.404 149.5,202.5C 151.999,199.831 154.332,196.998 156.5,194C 157.094,193.536 157.761,193.369 158.5,193.5 Z"/></g>
<g><path style="opacity:1" fill="#11452d" d="M 159.5,199.5 C 159.649,200.552 159.483,201.552 159,202.5C 157.147,204.28 155.313,205.947 153.5,207.5C 154.762,204.243 156.762,201.577 159.5,199.5 Z"/></g>
<g><path style="opacity:1" fill="#555555" d="M 586.5,203.5 C 586.186,211.087 586.519,218.587 587.5,226C 586.906,226.464 586.239,226.631 585.5,226.5C 585.5,226.167 585.5,225.833 585.5,225.5C 585.175,217.981 585.508,210.648 586.5,203.5 Z"/></g>
<g><path style="opacity:1" fill="#0c2f1e" d="M 719.5,212.5 C 719.5,212.167 719.5,211.833 719.5,211.5C 720.93,211.421 722.264,211.754 723.5,212.5C 726.303,215.775 728.303,219.442 729.5,223.5C 726.4,219.644 723.067,215.977 719.5,212.5 Z"/></g>
<g><path style="opacity:1" fill="#0b3621" d="M 153.5,207.5 C 153.167,208.833 152.833,210.167 152.5,211.5C 152.238,213.564 151.071,214.897 149,215.5C 147.991,217.025 147.491,218.692 147.5,220.5C 146.5,220.5 145.5,220.5 144.5,220.5C 146.42,217.661 148.087,214.661 149.5,211.5C 150.833,210.167 152.167,208.833 153.5,207.5 Z"/></g>
<g><path style="opacity:1" fill="#0f3022" d="M 659.5,213.5 C 657.301,217.247 654.634,220.58 651.5,223.5C 651.167,223.5 650.833,223.5 650.5,223.5C 650.019,219.651 651.686,217.651 655.5,217.5C 655.488,214.858 656.821,213.525 659.5,213.5 Z"/></g>
<g><path style="opacity:1" fill="#1fae75" d="M 719.5,212.5 C 723.067,215.977 726.4,219.644 729.5,223.5C 729.833,223.5 730.167,223.5 730.5,223.5C 731.29,224.794 732.29,225.961 733.5,227C 727.5,227.667 721.5,227.667 715.5,227C 714.837,225.482 713.837,224.315 712.5,223.5C 709.529,220.192 706.529,216.859 703.5,213.5C 707.145,214.989 710.478,216.989 713.5,219.5C 714.167,219.333 714.833,219.167 715.5,219C 714.007,217.844 714.174,217.01 716,216.5C 720.452,218.26 720.619,220.426 716.5,223C 718.159,224.841 720.159,226.008 722.5,226.5C 722.5,225.5 722.5,224.5 722.5,223.5C 719.452,223.506 718.952,222.506 721,220.5C 722.019,221.687 723.186,222.687 724.5,223.5C 724.833,223 725.167,222.5 725.5,222C 723.217,218.938 721.217,215.771 719.5,212.5 Z"/></g>
<g><path style="opacity:1" fill="#c3c3c3" d="M 321.5,225.5 C 300.833,226.833 280.167,226.833 259.5,225.5C 280.375,225.471 301.042,225.471 321.5,225.5 Z"/></g>
<g><path style="opacity:1" fill="#b6b6b6" d="M 563.5,214.5 C 564.483,218.298 564.817,222.298 564.5,226.5C 540.833,226.5 517.167,226.5 493.5,226.5C 493.5,226.167 493.5,225.833 493.5,225.5C 516.833,225.5 540.167,225.5 563.5,225.5C 563.5,221.833 563.5,218.167 563.5,214.5 Z"/></g>
<g><path style="opacity:1" fill="#31946e" d="M 650.5,223.5 C 650.833,223.5 651.167,223.5 651.5,223.5C 651.414,224.496 651.748,225.329 652.5,226C 656.821,226.499 661.154,226.666 665.5,226.5C 660.36,227.488 655.026,227.821 649.5,227.5C 648.957,227.44 648.624,227.107 648.5,226.5C 649.612,225.735 650.279,224.735 650.5,223.5 Z"/></g>
<g><path style="opacity:1" fill="#152b1f" d="M 175.5,217.5 C 183.584,228.662 190.918,240.329 197.5,252.5C 191.324,245.339 185.991,237.506 181.5,229C 180.365,228.251 179.365,228.417 178.5,229.5C 179.752,231.001 180.752,232.668 181.5,234.5C 180.311,235.429 178.978,235.762 177.5,235.5C 177.421,233.334 176.754,231.334 175.5,229.5C 175.939,227.896 176.606,226.396 177.5,225C 176.129,222.681 175.462,220.181 175.5,217.5 Z"/></g>
<g><path style="opacity:1" fill="#0c3320" d="M 685.5,205.5 C 682.549,209.463 679.549,213.463 676.5,217.5C 675.754,218.736 675.421,220.07 675.5,221.5C 677.103,221.312 678.437,221.812 679.5,223C 676.901,223.769 674.401,223.602 672,222.5C 670.209,223.912 669.042,225.745 668.5,228C 661.986,228.82 655.653,228.653 649.5,227.5C 655.026,227.821 660.36,227.488 665.5,226.5C 672.167,219.5 678.833,212.5 685.5,205.5 Z"/></g>
<g><path style="opacity:1" fill="#15271c" d="M 712.5,223.5 C 713.837,224.315 714.837,225.482 715.5,227C 721.5,227.667 727.5,227.667 733.5,227C 732.29,225.961 731.29,224.794 730.5,223.5C 735.158,223.653 736.158,225.486 733.5,229C 726.833,229.667 720.167,229.667 713.5,229C 712.594,227.301 712.261,225.467 712.5,223.5 Z"/></g>
<g><path style="opacity:1" fill="#201d1e" d="M 175.5,216.5 C 175.5,216.833 175.5,217.167 175.5,217.5C 175.462,220.181 176.129,222.681 177.5,225C 176.606,226.396 175.939,227.896 175.5,229.5C 176.754,231.334 177.421,233.334 177.5,235.5C 178.978,235.762 180.311,235.429 181.5,234.5C 180.752,232.668 179.752,231.001 178.5,229.5C 179.365,228.417 180.365,228.251 181.5,229C 185.991,237.506 191.324,245.339 197.5,252.5C 199.104,253.287 199.771,254.62 199.5,256.5C 192.798,256.664 186.131,256.331 179.5,255.5C 177.946,251.698 176.946,247.698 176.5,243.5C 175.5,243.5 174.5,243.5 173.5,243.5C 173.5,242.167 173.5,240.833 173.5,239.5C 172.5,239.5 171.5,239.5 170.5,239.5C 170.785,237.712 170.452,236.045 169.5,234.5C 167.791,232.124 165.791,230.124 163.5,228.5C 162.292,227.218 160.958,227.218 159.5,228.5C 156.865,233.127 153.865,237.46 150.5,241.5C 148.173,241.753 146.173,241.086 144.5,239.5C 142.76,240.716 141.76,242.382 141.5,244.5C 142.204,246.535 142.871,248.535 143.5,250.5C 142.89,252.434 141.89,254.101 140.5,255.5C 139.325,255.281 138.325,255.614 137.5,256.5C 135.157,259.862 132.824,263.196 130.5,266.5C 129.034,267.347 128.2,268.68 128,270.5C 126.644,269.62 125.144,269.286 123.5,269.5C 123.5,267.5 123.5,265.5 123.5,263.5C 124.833,263.5 126.167,263.5 127.5,263.5C 127.5,262.167 127.5,260.833 127.5,259.5C 126.5,259.5 125.5,259.5 124.5,259.5C 124.773,257.549 124.107,256.049 122.5,255C 124.706,253.316 126.206,251.149 127,248.5C 127.219,249.938 127.719,251.271 128.5,252.5C 129.474,250.257 129.808,247.924 129.5,245.5C 132.026,245.687 133.693,247.02 134.5,249.5C 133.349,251.325 132.682,253.325 132.5,255.5C 133.833,255.5 135.167,255.5 136.5,255.5C 136.421,254.07 136.754,252.736 137.5,251.5C 136.421,247.09 134.754,243.09 132.5,239.5C 136.423,235.078 139.423,230.078 141.5,224.5C 142.659,223.26 143.659,221.926 144.5,220.5C 145.5,220.5 146.5,220.5 147.5,220.5C 147.491,218.692 147.991,217.025 149,215.5C 151.071,214.897 152.238,213.564 152.5,211.5C 153.82,210.058 155.486,209.392 157.5,209.5C 157.341,212.187 158.175,214.52 160,216.5C 161.392,213.722 161.892,210.722 161.5,207.5C 162.5,207.5 163.5,207.5 164.5,207.5C 165.7,210.833 165.7,214.167 164.5,217.5C 165.677,219.975 167.677,220.975 170.5,220.5C 170.215,218.712 170.548,217.045 171.5,215.5C 172.736,216.246 174.07,216.579 175.5,216.5 Z"/></g>
<g><path style="opacity:1" fill="#03381f" d="M 141.5,224.5 C 139.423,230.078 136.423,235.078 132.5,239.5C 132.167,239.5 131.833,239.5 131.5,239.5C 134.092,233.976 137.425,228.976 141.5,224.5 Z"/></g>
<g><path style="opacity:1" fill="#192822" d="M 150.5,241.5 C 149.311,245.36 146.977,248.36 143.5,250.5C 142.871,248.535 142.204,246.535 141.5,244.5C 141.76,242.382 142.76,240.716 144.5,239.5C 146.173,241.086 148.173,241.753 150.5,241.5 Z"/></g>
<g><path style="opacity:1" fill="#13281d" d="M 433.5,244.5 C 433.175,252.019 433.508,259.352 434.5,266.5C 439.305,267.487 444.305,267.821 449.5,267.5C 449.5,268.833 449.5,270.167 449.5,271.5C 445.818,271.665 442.152,271.499 438.5,271C 438.957,270.586 439.291,270.086 439.5,269.5C 438.333,269.167 437.167,268.833 436,268.5C 434.55,270.309 432.05,271.309 428.5,271.5C 428.5,270.5 428.5,269.5 428.5,268.5C 429.5,268.5 430.5,268.5 431.5,268.5C 431.513,261.898 431.68,255.231 432,248.5C 430.575,249.212 429.075,249.379 427.5,249C 425.963,250.707 424.296,252.207 422.5,253.5C 423.557,251.059 424.89,248.725 426.5,246.5C 425.167,245.167 423.833,245.167 422.5,246.5C 420.476,248.69 418.643,251.023 417,253.5C 415.578,249.242 412.745,246.576 408.5,245.5C 408.414,244.504 408.748,243.671 409.5,243C 412.191,243.054 414.024,241.887 415,239.5C 415.481,242.477 416.648,245.143 418.5,247.5C 421.441,245.213 424.108,242.713 426.5,240C 427.448,239.517 428.448,239.351 429.5,239.5C 429.5,241.167 429.5,242.833 429.5,244.5C 430.833,244.5 432.167,244.5 433.5,244.5 Z"/></g>
<g><path style="opacity:1" fill="#12281d" d="M 636.5,266.5 C 636.5,259.167 636.5,251.833 636.5,244.5C 635.167,244.5 633.833,244.5 632.5,244.5C 632.5,247.167 632.5,249.833 632.5,252.5C 631.235,251.486 630.569,249.986 630.5,248C 630.667,246.5 630.833,245 631,243.5C 634.826,242.795 638.326,241.461 641.5,239.5C 642.833,239.667 644.167,239.833 645.5,240C 643.75,241.319 641.75,241.819 639.5,241.5C 638.763,249.467 638.263,257.467 638,265.5C 637.617,266.056 637.117,266.389 636.5,266.5 Z"/></g>
<g><path style="opacity:1" fill="#17221c" d="M 682.5,252.5 C 681.597,254.62 680.263,254.954 678.5,253.5C 678.5,250.5 678.5,247.5 678.5,244.5C 676.901,244.232 675.568,244.566 674.5,245.5C 672.952,245.821 672.285,246.821 672.5,248.5C 669.983,242.927 668.65,243.261 668.5,249.5C 669.5,249.5 670.5,249.5 671.5,249.5C 671.895,252.523 670.895,253.523 668.5,252.5C 667.614,253.325 667.281,254.325 667.5,255.5C 672.833,256.167 672.833,256.833 667.5,257.5C 667.392,259.514 668.058,261.18 669.5,262.5C 667.11,262.087 664.777,261.421 662.5,260.5C 664.332,259.943 665.665,258.943 666.5,257.5C 666.5,253.167 666.5,248.833 666.5,244.5C 663.5,244.5 660.5,244.5 657.5,244.5C 658.363,243.06 658.363,241.726 657.5,240.5C 658.167,239.833 658.833,239.167 659.5,238.5C 655.659,234.093 656.993,232.593 663.5,234C 664.406,235.699 664.739,237.533 664.5,239.5C 663.5,239.5 662.5,239.5 661.5,239.5C 661.5,240.5 661.5,241.5 661.5,242.5C 663.167,242.5 664.833,242.5 666.5,242.5C 666.5,241.5 666.5,240.5 666.5,239.5C 667.5,239.5 668.5,239.5 669.5,239.5C 669.231,237.571 669.731,235.905 671,234.5C 671.121,236.727 671.954,238.56 673.5,240C 671.503,241.153 671.17,242.653 672.5,244.5C 674.931,243.64 676.264,241.973 676.5,239.5C 679.187,239.336 681.854,239.503 684.5,240C 683.109,241.02 681.609,241.853 680,242.5C 680.818,245.831 680.651,249.164 679.5,252.5C 680.5,252.5 681.5,252.5 682.5,252.5 Z"/></g>
<g><path style="opacity:1" fill="#04442a" d="M 545.5,244.5 C 545.5,244.833 545.5,245.167 545.5,245.5C 538.5,245.5 531.5,245.5 524.5,245.5C 528.203,243.945 532.203,243.278 536.5,243.5C 539.686,243.502 542.686,243.835 545.5,244.5 Z"/></g>
<g><path style="opacity:1" fill="#044d2e" d="M 584.5,245.5 C 591.313,244.509 598.313,244.175 605.5,244.5C 606.586,244.62 607.253,245.287 607.5,246.5C 607.253,247.713 606.586,248.38 605.5,248.5C 605.5,247.5 605.5,246.5 605.5,245.5C 598.5,245.5 591.5,245.5 584.5,245.5 Z"/></g>
<g><path style="opacity:1" fill="#0b553a" d="M 644.5,245.5 C 648.634,244.515 652.968,244.182 657.5,244.5C 660.5,244.5 663.5,244.5 666.5,244.5C 666.5,248.833 666.5,253.167 666.5,257.5C 666.167,257.5 665.833,257.5 665.5,257.5C 665.5,253.5 665.5,249.5 665.5,245.5C 658.5,245.5 651.5,245.5 644.5,245.5 Z"/></g>
<g><path style="opacity:1" fill="#2da97b" d="M 524.5,245.5 C 531.5,245.5 538.5,245.5 545.5,245.5C 546.404,246.209 546.737,247.209 546.5,248.5C 540.167,248.5 533.833,248.5 527.5,248.5C 527.154,246.295 526.487,246.128 525.5,248C 526.041,251.225 526.374,254.391 526.5,257.5C 524.577,253.971 523.911,249.971 524.5,245.5 Z"/></g>
<g><path style="opacity:1" fill="#28ad7b" d="M 644.5,245.5 C 651.5,245.5 658.5,245.5 665.5,245.5C 665.5,249.5 665.5,253.5 665.5,257.5C 662.813,257.336 660.146,257.503 657.5,258C 660.564,260.207 662.564,263.041 663.5,266.5C 662.448,266.649 661.448,266.483 660.5,266C 658.027,263.489 655.694,260.989 653.5,258.5C 651.735,257.539 649.735,257.205 647.5,257.5C 647.5,260.5 647.5,263.5 647.5,266.5C 646.5,266.5 645.5,266.5 644.5,266.5C 644.5,259.5 644.5,252.5 644.5,245.5 Z"/></g>
<g><path style="opacity:1" fill="#162921" d="M 407.5,245.5 C 409.062,249.392 411.395,252.725 414.5,255.5C 415.429,256.689 415.762,258.022 415.5,259.5C 412.441,258.843 410.941,256.843 411,253.5C 407.712,248.468 404.212,248.301 400.5,253C 394.843,253.499 389.176,253.666 383.5,253.5C 382.566,252.432 382.232,251.099 382.5,249.5C 388.358,249.822 394.025,249.489 399.5,248.5C 399.5,247.5 399.5,246.5 399.5,245.5C 392.5,245.5 385.5,245.5 378.5,245.5C 385.285,244.043 392.285,243.043 399.5,242.5C 372.858,240.671 372.858,239.838 399.5,240C 401.708,240.936 403.042,242.602 403.5,245C 404.793,245.49 406.127,245.657 407.5,245.5 Z"/></g>
<g><path style="opacity:1" fill="#20a976" d="M 584.5,245.5 C 591.5,245.5 598.5,245.5 605.5,245.5C 605.5,246.5 605.5,247.5 605.5,248.5C 600.167,248.5 594.833,248.5 589.5,248.5C 588.191,250.571 587.525,253.071 587.5,256C 587.503,258.69 587.836,261.19 588.5,263.5C 594.167,263.5 599.833,263.5 605.5,263.5C 605.5,264.5 605.5,265.5 605.5,266.5C 605.5,267.167 605.167,267.5 604.5,267.5C 597.833,267.5 591.167,267.5 584.5,267.5C 584.5,260.167 584.5,252.833 584.5,245.5 Z"/></g>
<g><path style="opacity:1" fill="#251b1d" d="M 672.5,248.5 C 672.258,254.208 672.592,259.875 673.5,265.5C 671.847,268.825 669.18,270.492 665.5,270.5C 665.5,268.5 665.5,266.5 665.5,264.5C 667.483,264.843 668.817,264.176 669.5,262.5C 668.058,261.18 667.392,259.514 667.5,257.5C 672.833,256.833 672.833,256.167 667.5,255.5C 667.281,254.325 667.614,253.325 668.5,252.5C 670.895,253.523 671.895,252.523 671.5,249.5C 670.5,249.5 669.5,249.5 668.5,249.5C 668.65,243.261 669.983,242.927 672.5,248.5 Z"/></g>
<g><path style="opacity:1" fill="#27af7d" d="M 707.5,245.5 C 707.5,246.5 707.5,247.5 707.5,248.5C 704.5,248.5 701.5,248.5 698.5,248.5C 698.5,254.5 698.5,260.5 698.5,266.5C 697.209,266.737 696.209,266.404 695.5,265.5C 695.5,259.833 695.5,254.167 695.5,248.5C 692.5,248.5 689.5,248.5 686.5,248.5C 686.5,247.5 686.5,246.5 686.5,245.5C 693.5,245.5 700.5,245.5 707.5,245.5 Z"/></g>
<g><path style="opacity:1" fill="#0d3222" d="M 732.5,245.5 C 731.127,245.343 729.793,245.51 728.5,246C 727.024,248.643 725.024,250.81 722.5,252.5C 720.836,250.509 719.169,248.509 717.5,246.5C 718.859,245.993 719.859,244.993 720.5,243.5C 722.061,251.081 724.061,251.081 726.5,243.5C 728.5,243.167 730.5,242.833 732.5,242.5C 732.5,243.5 732.5,244.5 732.5,245.5 Z"/></g>
<g><path style="opacity:1" fill="#084a2a" d="M 399.5,248.5 C 394.025,249.489 388.358,249.822 382.5,249.5C 382.232,251.099 382.566,252.432 383.5,253.5C 383.5,256.5 383.5,259.5 383.5,262.5C 389.026,262.179 394.36,262.512 399.5,263.5C 393.5,263.5 387.5,263.5 381.5,263.5C 381.5,258.5 381.5,253.5 381.5,248.5C 387.5,248.5 393.5,248.5 399.5,248.5 Z"/></g>
<g><path style="opacity:1" fill="#024b2e" d="M 464.5,245.5 C 464.5,244.833 464.833,244.5 465.5,244.5C 472.508,244.334 479.508,244.5 486.5,245C 487.38,246.356 487.714,247.856 487.5,249.5C 480.833,249.5 474.167,249.5 467.5,249.5C 473.31,248.51 479.31,248.177 485.5,248.5C 485.5,247.5 485.5,246.5 485.5,245.5C 478.5,245.5 471.5,245.5 464.5,245.5 Z"/></g>
<g><path style="opacity:1" fill="#05512e" d="M 661.5,254.5 C 661.5,252.833 661.5,251.167 661.5,249.5C 657.167,249.5 652.833,249.5 648.5,249.5C 648.5,250.833 648.5,252.167 648.5,253.5C 651.713,253.19 654.713,253.523 657.5,254.5C 654.167,254.5 650.833,254.5 647.5,254.5C 647.5,252.5 647.5,250.5 647.5,248.5C 652.5,248.5 657.5,248.5 662.5,248.5C 662.795,250.735 662.461,252.735 661.5,254.5 Z"/></g>
<g><path style="opacity:1" fill="#156849" d="M 674.5,245.5 C 675.568,244.566 676.901,244.232 678.5,244.5C 678.5,247.5 678.5,250.5 678.5,253.5C 678.5,258.167 678.5,262.833 678.5,267.5C 676.901,267.768 675.568,267.434 674.5,266.5C 675.5,266.5 676.5,266.5 677.5,266.5C 677.5,259.5 677.5,252.5 677.5,245.5C 676.5,245.5 675.5,245.5 674.5,245.5 Z"/></g>
<g><path style="opacity:1" fill="#044a2c" d="M 685.5,244.5 C 693.019,244.175 700.352,244.508 707.5,245.5C 700.5,245.5 693.5,245.5 686.5,245.5C 686.5,246.5 686.5,247.5 686.5,248.5C 689.5,248.5 692.5,248.5 695.5,248.5C 695.5,254.167 695.5,259.833 695.5,265.5C 694.833,264.167 694.167,262.833 693.5,261.5C 693.5,257.5 693.5,253.5 693.5,249.5C 691.297,249.604 689.297,250.27 687.5,251.5C 687.179,249.952 686.179,249.285 684.5,249.5C 684.5,248.5 684.5,247.5 684.5,246.5C 684.833,245.833 685.167,245.167 685.5,244.5 Z"/></g>
<g><path style="opacity:1" fill="#17261d" d="M 717.5,245.5 C 716.022,245.238 714.689,245.571 713.5,246.5C 715.038,248.243 716.038,250.243 716.5,252.5C 714.372,251.043 712.038,250.043 709.5,249.5C 709.843,247.517 709.176,246.183 707.5,245.5C 700.352,244.508 693.019,244.175 685.5,244.5C 691.346,243.833 697.346,243.167 703.5,242.5C 698.897,241.342 694.23,240.509 689.5,240C 694.635,240.08 699.469,239.247 704,237.5C 705.916,238.928 708.083,239.928 710.5,240.5C 709.147,241.524 708.48,242.857 708.5,244.5C 710.342,244.277 712.175,243.943 714,243.5C 715.699,243.387 716.866,244.053 717.5,245.5 Z"/></g>
<g><path style="opacity:1" fill="#1a271c" d="M 661.5,254.5 C 660.167,254.5 658.833,254.5 657.5,254.5C 654.713,253.523 651.713,253.19 648.5,253.5C 648.5,252.167 648.5,250.833 648.5,249.5C 652.833,249.5 657.167,249.5 661.5,249.5C 661.5,251.167 661.5,252.833 661.5,254.5 Z"/></g>
<g><path style="opacity:1" fill="#093321" d="M 707.5,245.5 C 709.176,246.183 709.843,247.517 709.5,249.5C 706.375,250.479 703.042,250.813 699.5,250.5C 700.182,256.545 700.182,262.545 699.5,268.5C 694.677,268.673 692.677,266.339 693.5,261.5C 694.167,262.833 694.833,264.167 695.5,265.5C 696.209,266.404 697.209,266.737 698.5,266.5C 698.5,260.5 698.5,254.5 698.5,248.5C 701.5,248.5 704.5,248.5 707.5,248.5C 707.5,247.5 707.5,246.5 707.5,245.5 Z"/></g>
<g><path style="opacity:1" fill="#16241c" d="M 605.5,244.5 C 598.313,244.175 591.313,244.509 584.5,245.5C 584.5,252.833 584.5,260.167 584.5,267.5C 591.167,267.5 597.833,267.5 604.5,267.5C 604.196,268.15 603.863,268.817 603.5,269.5C 608.662,270.771 608.662,271.438 603.5,271.5C 600.677,271.051 598.177,270.051 596,268.5C 591.518,268.871 587.185,269.871 583,271.5C 580.641,271.676 580.141,271.009 581.5,269.5C 582.497,269.53 583.164,269.03 583.5,268C 582.678,265.566 582.344,263.066 582.5,260.5C 580.833,260.5 579.167,260.5 577.5,260.5C 577.663,258.143 577.497,255.81 577,253.5C 575.759,251.579 574.259,251.246 572.5,252.5C 573.5,253.333 574.5,254.167 575.5,255C 574.572,255.388 573.905,256.055 573.5,257C 574.885,258.597 575.551,260.43 575.5,262.5C 573.5,262.5 571.5,262.5 569.5,262.5C 568.852,260.414 567.352,259.414 565,259.5C 562.23,259.404 561.396,260.404 562.5,262.5C 561.167,262.5 559.833,262.5 558.5,262.5C 558.5,261.167 558.5,259.833 558.5,258.5C 563.032,258.818 567.366,258.485 571.5,257.5C 571.5,256.5 571.5,255.5 571.5,254.5C 570.5,254.5 569.5,254.5 568.5,254.5C 565.375,253.521 562.042,253.187 558.5,253.5C 558.5,252.5 558.5,251.5 558.5,250.5C 564.509,250.334 570.509,250.501 576.5,251C 577.025,251.692 577.692,252.192 578.5,252.5C 581.205,249.377 580.872,246.544 577.5,244C 569.507,243.5 561.507,243.334 553.5,243.5C 553.666,248.511 553.499,253.511 553,258.5C 550.961,259.978 550.128,261.978 550.5,264.5C 551.791,264.263 552.791,264.596 553.5,265.5C 551.139,265.674 548.806,266.007 546.5,266.5C 546.817,262.298 546.483,258.298 545.5,254.5C 539.926,252.547 533.926,251.88 527.5,252.5C 527.5,251.167 527.5,249.833 527.5,248.5C 533.833,248.5 540.167,248.5 546.5,248.5C 546.737,247.209 546.404,246.209 545.5,245.5C 545.5,245.167 545.5,244.833 545.5,244.5C 547.736,245.389 549.736,246.722 551.5,248.5C 551.833,247.667 552.167,246.833 552.5,246C 551.382,243.941 550.715,241.774 550.5,239.5C 551.833,239.5 553.167,239.5 554.5,239.5C 554.5,240.5 554.5,241.5 554.5,242.5C 571.734,243.315 588.734,243.982 605.5,244.5 Z"/></g>
<g><path style="opacity:1" fill="#0e3625" d="M 568.5,254.5 C 564.833,254.5 561.167,254.5 557.5,254.5C 557.5,252.5 557.5,250.5 557.5,248.5C 563.5,248.5 569.5,248.5 575.5,248.5C 575.5,247.5 575.5,246.5 575.5,245.5C 568.5,245.5 561.5,245.5 554.5,245.5C 554.5,252.5 554.5,259.5 554.5,266.5C 553.833,266.5 553.5,266.167 553.5,265.5C 552.791,264.596 551.791,264.263 550.5,264.5C 550.128,261.978 550.961,259.978 553,258.5C 553.499,253.511 553.666,248.511 553.5,243.5C 561.507,243.334 569.507,243.5 577.5,244C 580.872,246.544 581.205,249.377 578.5,252.5C 577.692,252.192 577.025,251.692 576.5,251C 570.509,250.501 564.509,250.334 558.5,250.5C 558.5,251.5 558.5,252.5 558.5,253.5C 562.042,253.187 565.375,253.521 568.5,254.5 Z"/></g>
<g><path style="opacity:1" fill="#28af7d" d="M 568.5,254.5 C 569.5,254.5 570.5,254.5 571.5,254.5C 571.5,255.5 571.5,256.5 571.5,257.5C 566.833,257.5 562.167,257.5 557.5,257.5C 557.5,259.5 557.5,261.5 557.5,263.5C 563.5,263.5 569.5,263.5 575.5,263.5C 575.5,264.5 575.5,265.5 575.5,266.5C 568.5,266.5 561.5,266.5 554.5,266.5C 554.5,259.5 554.5,252.5 554.5,245.5C 561.5,245.5 568.5,245.5 575.5,245.5C 575.5,246.5 575.5,247.5 575.5,248.5C 569.5,248.5 563.5,248.5 557.5,248.5C 557.5,250.5 557.5,252.5 557.5,254.5C 561.167,254.5 564.833,254.5 568.5,254.5 Z"/></g>
<g><path style="opacity:1" fill="#06341c" d="M 732.5,246.5 C 732.244,250.683 730.244,253.683 726.5,255.5C 728.507,252.495 730.507,249.495 732.5,246.5 Z"/></g>
<g><path style="opacity:1" fill="#11291d" d="M 489.5,252.5 C 489.5,254.833 489.5,257.167 489.5,259.5C 488.5,259.5 487.5,259.5 486.5,259.5C 486.037,256.518 485.704,253.518 485.5,250.5C 483.396,250.201 481.396,250.534 479.5,251.5C 480.193,252.518 480.859,253.518 481.5,254.5C 476.833,254.5 472.167,254.5 467.5,254.5C 467.5,252.833 467.5,251.167 467.5,249.5C 474.167,249.5 480.833,249.5 487.5,249.5C 487.714,247.856 487.38,246.356 486.5,245C 479.508,244.5 472.508,244.334 465.5,244.5C 465.714,242.856 465.38,241.356 464.5,240C 465.793,239.51 467.127,239.343 468.5,239.5C 468.5,240.833 468.5,242.167 468.5,243.5C 471.5,243.5 474.5,243.5 477.5,243.5C 478.167,238.167 478.833,238.167 479.5,243.5C 482.187,243.336 484.854,243.503 487.5,244C 488.128,246.939 488.795,249.772 489.5,252.5 Z"/></g>
<g><path style="opacity:1" fill="#24ab77" d="M 717.5,245.5 C 717.5,245.833 717.5,246.167 717.5,246.5C 719.169,248.509 720.836,250.509 722.5,252.5C 725.024,250.81 727.024,248.643 728.5,246C 729.793,245.51 731.127,245.343 732.5,245.5C 732.5,245.833 732.5,246.167 732.5,246.5C 730.507,249.495 728.507,252.495 726.5,255.5C 725.778,255.918 725.278,256.584 725,257.5C 724.502,260.817 724.335,264.15 724.5,267.5C 723.167,267.5 721.833,267.5 720.5,267.5C 720.815,263.629 720.482,259.962 719.5,256.5C 718.974,254.77 717.974,253.436 716.5,252.5C 716.038,250.243 715.038,248.243 713.5,246.5C 714.689,245.571 716.022,245.238 717.5,245.5 Z"/></g>
<g><path style="opacity:1" fill="#053d26" d="M 527.5,252.5 C 533.926,251.88 539.926,252.547 545.5,254.5C 539.5,254.5 533.5,254.5 527.5,254.5C 527.5,253.833 527.5,253.167 527.5,252.5 Z"/></g>
<g><path style="opacity:1" fill="#30926d" d="M 527.5,254.5 C 533.5,254.5 539.5,254.5 545.5,254.5C 546.483,258.298 546.817,262.298 546.5,266.5C 546.167,266.5 545.833,266.5 545.5,266.5C 545.5,262.833 545.5,259.167 545.5,255.5C 539.31,255.823 533.31,255.49 527.5,254.5 Z"/></g>
<g><path style="opacity:1" fill="#08bf7a" d="M 225.5,143.5 C 226.226,146.179 227.059,148.846 228,151.5C 228.5,188.165 228.667,224.832 228.5,261.5C 228.607,263.903 227.607,265.736 225.5,267C 222.609,268.274 219.942,269.774 217.5,271.5C 216.833,271.5 216.167,271.5 215.5,271.5C 213.801,271.34 212.134,271.506 210.5,272C 208.232,274.29 205.565,275.956 202.5,277C 201.748,277.671 201.414,278.504 201.5,279.5C 196.865,282.153 192.199,284.819 187.5,287.5C 187.167,287.5 186.833,287.5 186.5,287.5C 179.527,290.987 172.527,294.487 165.5,298C 160.773,299.036 156.44,298.203 152.5,295.5C 149.622,293.895 146.622,292.561 143.5,291.5C 141.151,289.659 138.485,288.326 135.5,287.5C 132.06,285.276 128.393,283.276 124.5,281.5C 125.762,277.596 127.429,273.929 129.5,270.5C 133.521,265.804 137.188,260.804 140.5,255.5C 141.89,254.101 142.89,252.434 143.5,250.5C 146.977,248.36 149.311,245.36 150.5,241.5C 153.865,237.46 156.865,233.127 159.5,228.5C 160.958,227.218 162.292,227.218 163.5,228.5C 168.61,237.733 173.943,246.733 179.5,255.5C 182.428,256.82 185.761,257.486 189.5,257.5C 193.018,257.498 196.351,257.165 199.5,256.5C 199.771,254.62 199.104,253.287 197.5,252.5C 190.918,240.329 183.584,228.662 175.5,217.5C 175.5,217.167 175.5,216.833 175.5,216.5C 174.26,215.027 173.26,213.36 172.5,211.5C 173.26,209.64 174.26,207.973 175.5,206.5C 179.432,205.116 181.432,202.616 181.5,199C 185.961,194.477 189.295,189.31 191.5,183.5C 191.5,182.833 191.5,182.167 191.5,181.5C 193.821,178.204 196.154,174.871 198.5,171.5C 198.5,171.167 198.5,170.833 198.5,170.5C 201.579,167.35 203.913,163.683 205.5,159.5C 210.154,154.477 214.154,148.811 217.5,142.5C 218.333,142.167 219.167,141.833 220,141.5C 221.939,141.954 223.772,142.621 225.5,143.5 Z"/></g>
<g><path style="opacity:1" fill="#093320" d="M 163.5,228.5 C 165.791,230.124 167.791,232.124 169.5,234.5C 170.452,236.045 170.785,237.712 170.5,239.5C 171.5,239.5 172.5,239.5 173.5,239.5C 173.5,240.833 173.5,242.167 173.5,243.5C 174.5,243.5 175.5,243.5 176.5,243.5C 176.946,247.698 177.946,251.698 179.5,255.5C 173.943,246.733 168.61,237.733 163.5,228.5 Z"/></g>
<g><path style="opacity:1" fill="#085d3c" d="M 433.5,244.5 C 441.019,244.175 448.352,244.508 455.5,245.5C 448.5,245.5 441.5,245.5 434.5,245.5C 434.5,252.5 434.5,259.5 434.5,266.5C 433.508,259.352 433.175,252.019 433.5,244.5 Z"/></g>
<g><path style="opacity:1" fill="#24ac7a" d="M 464.5,245.5 C 471.5,245.5 478.5,245.5 485.5,245.5C 485.5,246.5 485.5,247.5 485.5,248.5C 479.31,248.177 473.31,248.51 467.5,249.5C 467.5,251.167 467.5,252.833 467.5,254.5C 472.167,254.5 476.833,254.5 481.5,254.5C 481.5,255.5 481.5,256.5 481.5,257.5C 476.833,257.5 472.167,257.5 467.5,257.5C 467.5,259.5 467.5,261.5 467.5,263.5C 473.5,263.5 479.5,263.5 485.5,263.5C 485.5,264.5 485.5,265.5 485.5,266.5C 478.167,266.5 470.833,266.5 463.5,266.5C 463.5,265.167 463.5,263.833 463.5,262.5C 463.178,256.642 463.511,250.975 464.5,245.5 Z"/></g>
<g><path style="opacity:1" fill="#113022" d="M 524.5,245.5 C 523.911,249.971 524.577,253.971 526.5,257.5C 531.833,257.5 537.167,257.5 542.5,257.5C 542.5,259.5 542.5,261.5 542.5,263.5C 536.5,263.5 530.5,263.5 524.5,263.5C 524.5,264.5 524.5,265.5 524.5,266.5C 531.5,266.5 538.5,266.5 545.5,266.5C 544.699,268.042 544.366,269.708 544.5,271.5C 541.15,271.665 537.817,271.498 534.5,271C 535.167,270.333 535.833,269.667 536.5,269C 532.452,268.566 528.452,268.566 524.5,269C 523.024,266.357 521.024,264.19 518.5,262.5C 519.242,261.713 520.075,261.047 521,260.5C 527.359,262.322 533.859,262.822 540.5,262C 539.663,260.989 539.33,259.822 539.5,258.5C 530.74,258.193 522.074,258.193 513.5,258.5C 514.209,257.596 515.209,257.263 516.5,257.5C 516.817,253.298 516.483,249.298 515.5,245.5C 508.5,245.5 501.5,245.5 494.5,245.5C 494.5,252.5 494.5,259.5 494.5,266.5C 495.5,266.5 496.5,266.5 497.5,266.5C 496.852,268.086 496.352,269.753 496,271.5C 495.517,270.552 495.351,269.552 495.5,268.5C 494.5,268.5 493.5,268.5 492.5,268.5C 492.5,267.5 492.5,266.5 492.5,265.5C 492.666,258.492 492.5,251.492 492,244.5C 491.617,243.944 491.117,243.611 490.5,243.5C 489.194,242.533 488.527,241.199 488.5,239.5C 491.501,240.942 494.667,242.275 498,243.5C 501.827,242.364 505.661,242.364 509.5,243.5C 509.5,242.167 509.5,240.833 509.5,239.5C 513.584,238.945 514.251,239.945 511.5,242.5C 513.341,243.23 515.175,243.897 517,244.5C 517.175,248.211 517.675,251.878 518.5,255.5C 519.333,252.5 520.167,249.5 521,246.5C 522.011,245.663 523.178,245.33 524.5,245.5 Z"/></g>
<g><path style="opacity:1" fill="#0f5c3c" d="M 515.5,245.5 C 516.483,249.298 516.817,253.298 516.5,257.5C 515.209,257.263 514.209,257.596 513.5,258.5C 512.449,259.222 511.782,260.222 511.5,261.5C 510.188,260.855 509.188,259.855 508.5,258.5C 510.781,257.723 512.948,256.723 515,255.5C 515.498,252.183 515.665,248.85 515.5,245.5 Z"/></g>
<g><path style="opacity:1" fill="#291a1c" d="M 613.5,252.5 C 613.5,255.167 613.5,257.833 613.5,260.5C 610.763,260.401 608.096,260.735 605.5,261.5C 600.405,261.221 595.405,261.555 590.5,262.5C 590.335,258.818 590.501,255.152 591,251.5C 591.497,253.81 591.663,256.143 591.5,258.5C 595.72,258.573 598.054,256.573 598.5,252.5C 600.167,252.5 601.833,252.5 603.5,252.5C 603.5,253.5 603.5,254.5 603.5,255.5C 598.533,255.584 598.2,256.918 602.5,259.5C 605.399,258.358 608.399,257.692 611.5,257.5C 611.077,255.219 611.744,253.552 613.5,252.5 Z"/></g>
<g><path style="opacity:1" fill="#157753" d="M 636.5,266.5 C 636.158,267.338 635.492,267.672 634.5,267.5C 627.646,267.824 620.979,267.491 614.5,266.5C 621.5,266.5 628.5,266.5 635.5,266.5C 635.83,259.468 635.497,252.468 634.5,245.5C 633.833,251.319 633.167,256.986 632.5,262.5C 632.5,260.167 632.5,257.833 632.5,255.5C 632.5,254.5 632.5,253.5 632.5,252.5C 632.5,249.833 632.5,247.167 632.5,244.5C 633.833,244.5 635.167,244.5 636.5,244.5C 636.5,251.833 636.5,259.167 636.5,266.5 Z"/></g>
<g><path style="opacity:1" fill="#094f2f" d="M 179.5,255.5 C 186.131,256.331 192.798,256.664 199.5,256.5C 196.351,257.165 193.018,257.498 189.5,257.5C 185.761,257.486 182.428,256.82 179.5,255.5 Z"/></g>
<g><path style="opacity:1" fill="#0c2e1c" d="M 378.5,245.5 C 378.5,252.5 378.5,259.5 378.5,266.5C 376.952,262.966 376.286,259.133 376.5,255C 376.667,252.167 376.833,249.333 377,246.5C 377.383,245.944 377.883,245.611 378.5,245.5 Z"/></g>
<g><path style="opacity:1" fill="#006739" d="M 589.5,248.5 C 588.555,253.405 588.221,258.405 588.5,263.5C 587.836,261.19 587.503,258.69 587.5,256C 587.525,253.071 588.191,250.571 589.5,248.5 Z"/></g>
<g><path style="opacity:1" fill="#1eb37b" d="M 407.5,245.5 C 407.833,245.5 408.167,245.5 408.5,245.5C 412.745,246.576 415.578,249.242 417,253.5C 418.643,251.023 420.476,248.69 422.5,246.5C 423.833,245.167 425.167,245.167 426.5,246.5C 424.89,248.725 423.557,251.059 422.5,253.5C 418.866,256.941 417.533,261.274 418.5,266.5C 417.5,266.5 416.5,266.5 415.5,266.5C 415.5,264.167 415.5,261.833 415.5,259.5C 415.762,258.022 415.429,256.689 414.5,255.5C 411.395,252.725 409.062,249.392 407.5,245.5 Z"/></g>
<g><path style="opacity:1" fill="#20a975" d="M 378.5,245.5 C 385.5,245.5 392.5,245.5 399.5,245.5C 399.5,246.5 399.5,247.5 399.5,248.5C 393.5,248.5 387.5,248.5 381.5,248.5C 381.5,253.5 381.5,258.5 381.5,263.5C 387.5,263.5 393.5,263.5 399.5,263.5C 399.5,264.833 399.5,266.167 399.5,267.5C 392.313,267.825 385.313,267.491 378.5,266.5C 378.5,259.5 378.5,252.5 378.5,245.5 Z"/></g>
<g><path style="opacity:1" fill="#18261f" d="M 131.5,239.5 C 131.833,239.5 132.167,239.5 132.5,239.5C 134.754,243.09 136.421,247.09 137.5,251.5C 136.754,252.736 136.421,254.07 136.5,255.5C 135.167,255.5 133.833,255.5 132.5,255.5C 132.682,253.325 133.349,251.325 134.5,249.5C 133.693,247.02 132.026,245.687 129.5,245.5C 129.808,247.924 129.474,250.257 128.5,252.5C 127.719,251.271 127.219,249.938 127,248.5C 126.206,251.149 124.706,253.316 122.5,255C 124.107,256.049 124.773,257.549 124.5,259.5C 125.5,259.5 126.5,259.5 127.5,259.5C 127.5,260.833 127.5,262.167 127.5,263.5C 126.167,263.5 124.833,263.5 123.5,263.5C 123.5,265.5 123.5,267.5 123.5,269.5C 125.144,269.286 126.644,269.62 128,270.5C 128.2,268.68 129.034,267.347 130.5,266.5C 130.167,267.833 129.833,269.167 129.5,270.5C 127.429,273.929 125.762,277.596 124.5,281.5C 123.872,278.91 123.539,276.243 123.5,273.5C 120.674,274.482 119.34,276.482 119.5,279.5C 119.805,282.276 120.805,284.776 122.5,287C 121.833,287.167 121.167,287.333 120.5,287.5C 118.997,286.477 117.497,285.477 116,284.5C 114.56,285.148 113.06,285.481 111.5,285.5C 111.5,284.167 111.5,282.833 111.5,281.5C 113.167,281.5 114.833,281.5 116.5,281.5C 116.5,280.167 116.5,278.833 116.5,277.5C 114.833,277.5 113.167,277.5 111.5,277.5C 111.238,276.022 111.571,274.689 112.5,273.5C 114.098,274.485 115.765,274.651 117.5,274C 118.376,272.415 119.709,271.415 121.5,271C 118.104,269.29 116.604,266.457 117,262.5C 114.852,263.977 113.518,265.977 113,268.5C 111.6,269.748 110.1,270.748 108.5,271.5C 113.99,263.195 119.49,254.862 125,246.5C 126.735,243.638 128.902,241.304 131.5,239.5 Z"/></g>
<g><path style="opacity:1" fill="#271b1c" d="M 490.5,243.5 C 491.117,243.611 491.617,243.944 492,244.5C 492.5,251.492 492.666,258.492 492.5,265.5C 491.636,266.688 490.636,267.855 489.5,269C 486.167,269.667 482.833,269.667 479.5,269C 481.382,268.802 483.048,268.302 484.5,267.5C 485.167,267.5 485.5,267.167 485.5,266.5C 487.176,265.817 487.843,264.483 487.5,262.5C 481.5,262.5 475.5,262.5 469.5,262.5C 469.5,261.5 469.5,260.5 469.5,259.5C 473.514,259.666 477.514,259.499 481.5,259C 482.801,257.384 482.801,255.884 481.5,254.5C 480.859,253.518 480.193,252.518 479.5,251.5C 481.396,250.534 483.396,250.201 485.5,250.5C 485.704,253.518 486.037,256.518 486.5,259.5C 487.5,259.5 488.5,259.5 489.5,259.5C 489.5,257.167 489.5,254.833 489.5,252.5C 489.264,249.391 489.597,246.391 490.5,243.5 Z"/></g>
<g><path style="opacity:1" fill="#24b17b" d="M 515.5,245.5 C 515.665,248.85 515.498,252.183 515,255.5C 512.948,256.723 510.781,257.723 508.5,258.5C 509.188,259.855 510.188,260.855 511.5,261.5C 511.5,261.833 511.5,262.167 511.5,262.5C 512.141,263.482 512.807,264.482 513.5,265.5C 512.635,266.583 511.635,266.749 510.5,266C 507.794,263.629 505.461,260.963 503.5,258C 501.527,257.505 499.527,257.338 497.5,257.5C 497.5,260.167 497.5,262.833 497.5,265.5C 497.5,265.833 497.5,266.167 497.5,266.5C 496.5,266.5 495.5,266.5 494.5,266.5C 494.5,259.5 494.5,252.5 494.5,245.5C 501.5,245.5 508.5,245.5 515.5,245.5 Z"/></g>
<g><path style="opacity:1" fill="#014b2a" d="M 497.5,248.5 C 502.5,248.5 507.5,248.5 512.5,248.5C 512.5,250.5 512.5,252.5 512.5,254.5C 507.5,254.5 502.5,254.5 497.5,254.5C 497.5,252.5 497.5,250.5 497.5,248.5 Z"/></g>
<g><path style="opacity:1" fill="#16261d" d="M 498.5,249.5 C 502.833,249.5 507.167,249.5 511.5,249.5C 511.5,250.833 511.5,252.167 511.5,253.5C 507.167,253.5 502.833,253.5 498.5,253.5C 498.5,252.167 498.5,250.833 498.5,249.5 Z"/></g>
<g><path style="opacity:1" fill="#30181d" d="M 569.5,262.5 C 567.167,262.5 564.833,262.5 562.5,262.5C 561.396,260.404 562.23,259.404 565,259.5C 567.352,259.414 568.852,260.414 569.5,262.5 Z"/></g>
<g><path style="opacity:1" fill="#2d161d" d="M 581.5,269.5 C 579.559,269.869 577.725,270.536 576,271.5C 575.536,270.906 575.369,270.239 575.5,269.5C 577.323,268.507 578.656,267.007 579.5,265C 578.968,262.98 577.635,262.147 575.5,262.5C 575.551,260.43 574.885,258.597 573.5,257C 573.905,256.055 574.572,255.388 575.5,255C 574.5,254.167 573.5,253.333 572.5,252.5C 574.259,251.246 575.759,251.579 577,253.5C 577.497,255.81 577.663,258.143 577.5,260.5C 579.167,260.5 580.833,260.5 582.5,260.5C 582.344,263.066 582.678,265.566 583.5,268C 583.164,269.03 582.497,269.53 581.5,269.5 Z"/></g>
<g><path style="opacity:1" fill="#073922" d="M 481.5,254.5 C 482.801,255.884 482.801,257.384 481.5,259C 477.514,259.499 473.514,259.666 469.5,259.5C 469.5,260.5 469.5,261.5 469.5,262.5C 475.5,262.5 481.5,262.5 487.5,262.5C 487.843,264.483 487.176,265.817 485.5,266.5C 485.5,265.5 485.5,264.5 485.5,263.5C 479.5,263.5 473.5,263.5 467.5,263.5C 467.5,261.5 467.5,259.5 467.5,257.5C 472.167,257.5 476.833,257.5 481.5,257.5C 481.5,256.5 481.5,255.5 481.5,254.5 Z"/></g>
<g><path style="opacity:1" fill="#23ab7b" d="M 674.5,245.5 C 675.5,245.5 676.5,245.5 677.5,245.5C 677.5,252.5 677.5,259.5 677.5,266.5C 676.5,266.5 675.5,266.5 674.5,266.5C 674.5,259.5 674.5,252.5 674.5,245.5 Z"/></g>
<g><path style="opacity:1" fill="#06361e" d="M 589.5,248.5 C 594.833,248.5 600.167,248.5 605.5,248.5C 604.626,249.525 603.459,250.192 602,250.5C 597.86,249.547 593.693,249.547 589.5,250.5C 589.183,254.702 589.517,258.702 590.5,262.5C 595.405,261.555 600.405,261.221 605.5,261.5C 606.167,262.167 606.833,262.833 607.5,263.5C 607.715,265.179 607.048,266.179 605.5,266.5C 605.5,265.5 605.5,264.5 605.5,263.5C 599.833,263.5 594.167,263.5 588.5,263.5C 588.221,258.405 588.555,253.405 589.5,248.5 Z"/></g>
<g><path style="opacity:1" fill="#0e3b29" d="M 571.5,257.5 C 567.366,258.485 563.032,258.818 558.5,258.5C 558.5,259.833 558.5,261.167 558.5,262.5C 559.833,262.5 561.167,262.5 562.5,262.5C 564.833,262.5 567.167,262.5 569.5,262.5C 571.5,262.5 573.5,262.5 575.5,262.5C 577.635,262.147 578.968,262.98 579.5,265C 578.656,267.007 577.323,268.507 575.5,269.5C 568.367,268.563 561.367,267.563 554.5,266.5C 561.5,266.5 568.5,266.5 575.5,266.5C 575.5,265.5 575.5,264.5 575.5,263.5C 569.5,263.5 563.5,263.5 557.5,263.5C 557.5,261.5 557.5,259.5 557.5,257.5C 562.167,257.5 566.833,257.5 571.5,257.5 Z"/></g>
<g><path style="opacity:1" fill="#02331b" d="M 719.5,256.5 C 720.482,259.962 720.815,263.629 720.5,267.5C 721.833,267.5 723.167,267.5 724.5,267.5C 723.081,268.451 721.415,268.784 719.5,268.5C 719.5,264.5 719.5,260.5 719.5,256.5 Z"/></g>
<g><path style="opacity:1" fill="#05301b" d="M 140.5,255.5 C 137.188,260.804 133.521,265.804 129.5,270.5C 129.833,269.167 130.167,267.833 130.5,266.5C 132.824,263.196 135.157,259.862 137.5,256.5C 138.325,255.614 139.325,255.281 140.5,255.5 Z"/></g>
<g><path style="opacity:1" fill="#063922" d="M 422.5,253.5 C 420.853,258.275 420.186,263.275 420.5,268.5C 418.219,268.923 416.552,268.256 415.5,266.5C 416.5,266.5 417.5,266.5 418.5,266.5C 417.533,261.274 418.866,256.941 422.5,253.5 Z"/></g>
<g><path style="opacity:1" fill="#21b27d" d="M 455.5,245.5 C 455.5,252.5 455.5,259.5 455.5,266.5C 448.5,266.5 441.5,266.5 434.5,266.5C 434.5,259.5 434.5,252.5 434.5,245.5C 441.5,245.5 448.5,245.5 455.5,245.5 Z"/></g>
<g><path style="opacity:1" fill="#014223" d="M 443.5,254.5 C 443.5,255.5 443.5,256.5 443.5,257.5C 446.5,257.5 449.5,257.5 452.5,257.5C 452.5,259.5 452.5,261.5 452.5,263.5C 447.5,263.5 442.5,263.5 437.5,263.5C 437.5,258.5 437.5,253.5 437.5,248.5C 442.5,248.5 447.5,248.5 452.5,248.5C 452.5,250.5 452.5,252.5 452.5,254.5C 449.5,254.5 446.5,254.5 443.5,254.5 Z"/></g>
<g><path style="opacity:1" fill="#261c1b" d="M 442.5,257.5 C 445.287,258.477 448.287,258.81 451.5,258.5C 451.67,259.822 451.337,260.989 450.5,262C 446.642,262.81 442.976,262.643 439.5,261.5C 439.5,257.833 439.5,254.167 439.5,250.5C 443.226,250.177 446.893,250.511 450.5,251.5C 447.893,252.318 445.226,252.818 442.5,253C 441.199,254.616 441.199,256.116 442.5,257.5 Z"/></g>
<g><path style="opacity:1" fill="#0e251a" d="M 443.5,254.5 C 442.596,255.209 442.263,256.209 442.5,257.5C 441.199,256.116 441.199,254.616 442.5,253C 445.226,252.818 447.893,252.318 450.5,251.5C 446.893,250.511 443.226,250.177 439.5,250.5C 439.5,254.167 439.5,257.833 439.5,261.5C 438.517,257.702 438.183,253.702 438.5,249.5C 442.833,249.5 447.167,249.5 451.5,249.5C 451.5,250.833 451.5,252.167 451.5,253.5C 448.615,253.194 445.948,253.527 443.5,254.5 Z"/></g>
<g><path style="opacity:1" fill="#0c3c26" d="M 511.5,262.5 C 516.453,264.092 516.786,266.425 512.5,269.5C 508.386,265.645 504.052,261.978 499.5,258.5C 498.832,260.969 498.165,263.302 497.5,265.5C 497.5,262.833 497.5,260.167 497.5,257.5C 499.527,257.338 501.527,257.505 503.5,258C 505.461,260.963 507.794,263.629 510.5,266C 511.635,266.749 512.635,266.583 513.5,265.5C 512.807,264.482 512.141,263.482 511.5,262.5 Z"/></g>
<g><path style="opacity:1" fill="#20b67d" d="M 527.5,248.5 C 527.5,249.833 527.5,251.167 527.5,252.5C 527.5,253.167 527.5,253.833 527.5,254.5C 533.31,255.49 539.31,255.823 545.5,255.5C 545.5,259.167 545.5,262.833 545.5,266.5C 538.5,266.5 531.5,266.5 524.5,266.5C 524.5,265.5 524.5,264.5 524.5,263.5C 530.5,263.5 536.5,263.5 542.5,263.5C 542.5,261.5 542.5,259.5 542.5,257.5C 537.167,257.5 531.833,257.5 526.5,257.5C 526.374,254.391 526.041,251.225 525.5,248C 526.487,246.128 527.154,246.295 527.5,248.5 Z"/></g>
<g><path style="opacity:1" fill="#25a778" d="M 632.5,262.5 C 633.167,256.986 633.833,251.319 634.5,245.5C 635.497,252.468 635.83,259.468 635.5,266.5C 628.5,266.5 621.5,266.5 614.5,266.5C 614.5,259.5 614.5,252.5 614.5,245.5C 615.833,245.5 617.167,245.5 618.5,245.5C 618.5,251.5 618.5,257.5 618.5,263.5C 623.363,263.819 628.03,263.486 632.5,262.5 Z"/></g>
<g><path style="opacity:1" fill="#133727" d="M 455.5,245.5 C 457.305,252.768 458.139,260.435 458,268.5C 458.729,265.453 460.562,263.453 463.5,262.5C 463.5,263.833 463.5,265.167 463.5,266.5C 470.833,266.5 478.167,266.5 485.5,266.5C 485.5,267.167 485.167,267.5 484.5,267.5C 481.167,267.5 477.833,267.5 474.5,267.5C 474.711,272.087 473.211,272.754 470,269.5C 468.635,269.844 467.468,270.511 466.5,271.5C 465.614,270.675 465.281,269.675 465.5,268.5C 461.8,270.46 457.8,271.46 453.5,271.5C 453.833,268.5 452.5,267.167 449.5,267.5C 444.305,267.821 439.305,267.487 434.5,266.5C 441.5,266.5 448.5,266.5 455.5,266.5C 455.5,259.5 455.5,252.5 455.5,245.5 Z"/></g>
<g><path style="opacity:1" fill="#0a2a1c" d="M 632.5,255.5 C 632.5,257.833 632.5,260.167 632.5,262.5C 628.03,263.486 623.363,263.819 618.5,263.5C 618.5,257.5 618.5,251.5 618.5,245.5C 617.167,245.5 615.833,245.5 614.5,245.5C 614.5,252.5 614.5,259.5 614.5,266.5C 620.979,267.491 627.646,267.824 634.5,267.5C 629.899,268.16 626.232,269.493 623.5,271.5C 618.209,270.285 612.876,269.285 607.5,268.5C 608.325,267.614 609.325,267.281 610.5,267.5C 610.5,266.167 610.5,264.833 610.5,263.5C 609.5,263.5 608.5,263.5 607.5,263.5C 606.833,262.833 606.167,262.167 605.5,261.5C 608.096,260.735 610.763,260.401 613.5,260.5C 613.5,257.833 613.5,255.167 613.5,252.5C 609.621,245.651 611.621,242.651 619.5,243.5C 619.5,249.833 619.5,256.167 619.5,262.5C 620.5,262.5 621.5,262.5 622.5,262.5C 622.334,258.154 622.501,253.821 623,249.5C 623.499,253.486 623.666,257.486 623.5,261.5C 626.167,261.5 628.833,261.5 631.5,261.5C 631.5,260.167 631.5,258.833 631.5,257.5C 630.07,257.421 628.736,257.754 627.5,258.5C 626.167,256.167 626.167,253.833 627.5,251.5C 629.111,252.32 629.778,253.654 629.5,255.5C 630.5,255.5 631.5,255.5 632.5,255.5 Z"/></g>
<g><path style="opacity:1" fill="#0d3322" d="M 644.5,245.5 C 644.5,252.5 644.5,259.5 644.5,266.5C 645.5,266.5 646.5,266.5 647.5,266.5C 647.5,263.5 647.5,260.5 647.5,257.5C 649.735,257.205 651.735,257.539 653.5,258.5C 652.178,258.33 651.011,258.663 650,259.5C 649.498,262.513 648.998,265.513 648.5,268.5C 646.473,268.662 644.473,268.495 642.5,268C 641.941,267.275 641.608,266.442 641.5,265.5C 643.457,259.567 643.79,253.567 642.5,247.5C 642.747,246.287 643.414,245.62 644.5,245.5 Z"/></g>
<g><path style="opacity:1" fill="#11291e" d="M 674.5,245.5 C 674.5,252.5 674.5,259.5 674.5,266.5C 675.568,267.434 676.901,267.768 678.5,267.5C 678.5,262.833 678.5,258.167 678.5,253.5C 680.263,254.954 681.597,254.62 682.5,252.5C 683.167,250.5 683.833,248.5 684.5,246.5C 684.5,247.5 684.5,248.5 684.5,249.5C 686.179,249.285 687.179,249.952 687.5,251.5C 685.896,254.403 684.896,257.737 684.5,261.5C 682.309,260.119 680.976,258.119 680.5,255.5C 680.167,256 679.833,256.5 679.5,257C 680.562,260.789 680.729,264.623 680,268.5C 670.889,273.476 662.889,272.143 656,264.5C 655.586,264.957 655.086,265.291 654.5,265.5C 654.602,263.233 654.268,260.9 653.5,258.5C 655.694,260.989 658.027,263.489 660.5,266C 661.448,266.483 662.448,266.649 663.5,266.5C 662.564,263.041 660.564,260.207 657.5,258C 660.146,257.503 662.813,257.336 665.5,257.5C 665.833,257.5 666.167,257.5 666.5,257.5C 665.665,258.943 664.332,259.943 662.5,260.5C 664.777,261.421 667.11,262.087 669.5,262.5C 668.817,264.176 667.483,264.843 665.5,264.5C 665.5,266.5 665.5,268.5 665.5,270.5C 669.18,270.492 671.847,268.825 673.5,265.5C 672.592,259.875 672.258,254.208 672.5,248.5C 672.285,246.821 672.952,245.821 674.5,245.5 Z"/></g>
<g><path style="opacity:1" fill="#29aa7b" d="M 215.5,271.5 C 211.162,274.671 206.496,277.338 201.5,279.5C 201.414,278.504 201.748,277.671 202.5,277C 205.565,275.956 208.232,274.29 210.5,272C 212.134,271.506 213.801,271.34 215.5,271.5 Z"/></g>
<g><path style="opacity:1" fill="#0b361f" d="M 124.5,281.5 C 128.393,283.276 132.06,285.276 135.5,287.5C 132.129,286.677 128.796,285.511 125.5,284C 124.748,283.329 124.414,282.496 124.5,281.5 Z"/></g>
<g><path style="opacity:1" fill="#14271c" d="M 215.5,271.5 C 216.167,271.5 216.833,271.5 217.5,271.5C 216.423,276.782 213.09,278.949 207.5,278C 205.606,279.079 205.273,280.413 206.5,282C 203.74,281.814 200.907,282.314 198,283.5C 197.833,283.833 197.667,284.167 197.5,284.5C 199.833,285.167 202.167,285.833 204.5,286.5C 198.831,286.723 193.165,287.056 187.5,287.5C 192.199,284.819 196.865,282.153 201.5,279.5C 206.496,277.338 211.162,274.671 215.5,271.5 Z"/></g>
<g><path style="opacity:1" fill="#0f3223" d="M 135.5,287.5 C 138.485,288.326 141.151,289.659 143.5,291.5C 141.073,291.477 138.74,290.977 136.5,290C 135.748,289.329 135.414,288.496 135.5,287.5 Z"/></g>
<g><path style="opacity:1" fill="#0f2d20" d="M 186.5,287.5 C 186.586,288.496 186.252,289.329 185.5,290C 181.52,291.966 177.52,293.966 173.5,296C 172.289,297.113 172.289,298.28 173.5,299.5C 169.429,300.137 165.429,300.971 161.5,302C 161.833,302.333 162.167,302.667 162.5,303C 160.5,303.667 158.5,303.667 156.5,303C 157.623,301.956 158.956,301.29 160.5,301C 158.269,299.853 155.935,298.853 153.5,298C 152.748,297.329 152.414,296.496 152.5,295.5C 156.44,298.203 160.773,299.036 165.5,298C 172.527,294.487 179.527,290.987 186.5,287.5 Z"/></g>
</svg>
